{
  "accessors": [
    {
      "bufferView": 2,
      "componentType": 5126,
      "count": 2018,
      "max": [
        0.79400300979614258,
        0.18744200468063354,
        0.79336601495742798
      ],
      "min": [
        0.20187099277973175,
        -0.1852169930934906,
        0.51629000902175903
      ],
      "type": "VEC3"
    },
    {
      "bufferView": 2,
      "byteOffset": 24216,
      "componentType": 5126,
      "count": 2018,
      "max": [
        0.98481649160385132,
        0.99799466133117676,
        0.99854522943496704
      ],
      "min": [
        -0.94323498010635376,
        -0.99792635440826416,
        -0.99985724687576294
      ],
      "type": "VEC3"
    },
    {
      "bufferView": 3,
      "componentType": 5126,
      "count": 2018,
      "max": [
        0.99876517057418823,
        0.89060688018798828,
        0.94665426015853882,
        1
      ],
      "min": [
        -0.99560487270355225,
        -0.76350164413452148,
        -0.98967236280441284,
        -1
      ],
      "type": "VEC4"
    },
    {
      "bufferView": 1,
      "componentType": 5126,
      "count": 2018,
      "max": [
        1,
        1
      ],
      "min": [
        0,
        0
      ],
      "type": "VEC2"
    },
    {
      "bufferView": 0,
      "componentType": 5125,
      "count": 10752,
      "max": [
        2017
      ],
      "min": [
        0
      ],
      "type": "SCALAR"
    },
    {
      "bufferView": 2,
      "byteOffset": 48432,
      "componentType": 5126,
      "count": 2018,
      "max": [
        -0.008799700066447258,
        0.18597300350666046,
        0.98159301280975342
      ],
      "min": [
        -0.64942598342895508,
        -0.18669399619102478,
        0.85012102127075195
      ],
      "type": "VEC3"
    },
    {
      "bufferView": 2,
      "byteOffset": 72648,
      "componentType": 5126,
      "count": 2018,
      "max": [
        0.99554097652435303,
        0.99793589115142822,
        0.99926978349685669
      ],
      "min": [
        -0.96249186992645264,
        -0.99793738126754761,
        -0.99993902444839478
      ],
      "type": "VEC3"
    },
    {
      "bufferView": 3,
      "byteOffset": 32288,
      "componentType": 5126,
      "count": 2018,
      "max": [
        0.99960684776306152,
        0.88911384344100952,
        0.96467345952987671,
        1
      ],
      "min": [
        -0.99967539310455322,
        -0.76561546325683594,
        -0.99489164352416992,
        -1
      ],
      "type": "VEC4"
    },
    {
      "bufferView": 1,
      "byteOffset": 16144,
      "componentType": 5126,
      "count": 2018,
      "max": [
        1,
        1
      ],
      "min": [
        0,
        0
      ],
      "type": "VEC2"
    },
    {
      "bufferView": 0,
      "byteOffset": 43008,
      "componentType": 5125,
      "count": 10752,
      "max": [
        2017
      ],
      "min": [
        0
      ],
      "type": "SCALAR"
    },
    {
      "bufferView": 2,
      "byteOffset": 96864,
      "componentType": 5126,
      "count": 48167,
      "max": [
        0.86509501934051514,
        0.21185000240802765,
        1
      ],
      "min": [
        -0.86509501934051514,
        -0.21185000240802765,
        -1
      ],
      "type": "VEC3"
    },
    {
      "bufferView": 2,
      "byteOffset": 674868,
      "componentType": 5126,
      "count": 48167,
      "max": [
        0.99997949600219727,
        0.99997448921203613,
        0.99995434284210205
      ],
      "min": [
        -0.99995648860931396,
        -0.99996352195739746,
        -0.99988621473312378
      ],
      "type": "VEC3"
    },
    {
      "bufferView": 3,
      "byteOffset": 64576,
      "componentType": 5126,
      "count": 48167,
      "max": [
        0.99980902671813965,
        0.99999648332595825,
        0.99996787309646606,
        1
      ],
      "min": [
        -0.99984896183013916,
        -0.99997895956039429,
        -0.99957519769668579,
        -1
      ],
      "type": "VEC4"
    },
    {
      "bufferView": 1,
      "byteOffset": 32288,
      "componentType": 5126,
      "count": 48167,
      "max": [
        1,
        1
      ],
      "min": [
        0,
        0
      ],
      "type": "VEC2"
    },
    {
      "bufferView": 0,
      "byteOffset": 86016,
      "componentType": 5125,
      "count": 245760,
      "max": [
        48166
      ],
      "min": [
        0
      ],
      "type": "SCALAR"
    }
  ],
  "asset": {
    "extras": {
      "author": "Jan.Picka (https://sketchfab.com/Jan.Picka)",
      "license": "CC-BY-4.0 (http://creativecommons.org/licenses/by/4.0/)",
      "source": "https://sketchfab.com/models/9492ef11394b495aa9e222594ddf0bcc",
      "title": "Glases"
    },
    "generator": "Sketchfab-3.19.6",
    "version": "2.0"
  },
  "bufferViews": [
    {
      "buffer": 0,
      "byteLength": 1069056,
      "byteOffset": 0,
      "name": "floatBufferViews",
      "target": 34963
    },
    {
      "buffer": 0,
      "byteLength": 417624,
      "byteOffset": 1069056,
      "byteStride": 8,
      "name": "floatBufferViews",
      "target": 34962
    },
    {
      "buffer": 0,
      "byteLength": 1252872,
      "byteOffset": 1486680,
      "byteStride": 12,
      "name": "floatBufferViews",
      "target": 34962
    },
    {
      "buffer": 0,
      "byteLength": 835248,
      "byteOffset": 2739552,
      "byteStride": 16,
      "name": "floatBufferViews",
      "target": 34962
    }
  ],
  "buffers": [
    {
      "byteLength": 3574800,
      "uri": "scene.bin"
    }
  ],
  "images": [
    {
      "uri": "textures/Mat_2_baseColor.png"
    },
    {
      "uri": "textures/Mat_2_normal.png"
    },
    {
      "uri": "textures/Mat_2_metallicRoughness.png"
    },
    {
      "uri": "textures/frame_baseColor.png"
    },
    {
      "uri": "textures/frame_normal.png"
    },
    {
      "uri": "textures/frame_metallicRoughness.png"
    }
  ],
  "materials": [
    {
      "alphaMode": "BLEND",
      "doubleSided": true,
      "emissiveFactor": [
        0,
        0,
        0
      ],
      "name": "frame",
      "normalTexture": {
        "index": 4,
        "scale": 1,
        "texCoord": 0
      },
      "pbrMetallicRoughness": {
        "baseColorFactor": [
          1,
          1,
          1,
          1
        ],
        "baseColorTexture": {
          "index": 3,
          "texCoord": 0
        },
        "metallicFactor": 1,
        "metallicRoughnessTexture": {
          "index": 5,
          "texCoord": 0
        },
        "roughnessFactor": 1
      }
    },
    {
      "alphaMode": "BLEND",
      "doubleSided": true,
      "emissiveFactor": [
        0,
        0,
        0
      ],
      "name": "Mat_2",
      "normalTexture": {
        "index": 1,
        "scale": 1,
        "texCoord": 0
      },
      "pbrMetallicRoughness": {
        "baseColorFactor": [
          1,
          1,
          1,
          1
        ],
        "baseColorTexture": {
          "index": 0,
          "texCoord": 0
        },
        "metallicFactor": 1,
        "metallicRoughnessTexture": {
          "index": 2,
          "texCoord": 0
        },
        "roughnessFactor": 1
      }
    }
  ],
  "meshes": [
    {
      "name": "defaultMaterial",
      "primitives": [
        {
          "attributes": {
            "NORMAL": 1,
            "POSITION": 0,
            "TANGENT": 2,
            "TEXCOORD_0": 3
          },
          "indices": 4,
          "material": 1,
          "mode": 4
        }
      ]
    },
    {
      "name": "defaultMaterial",
      "primitives": [
        {
          "attributes": {
            "NORMAL": 6,
            "POSITION": 5,
            "TANGENT": 7,
            "TEXCOORD_0": 8
          },
          "indices": 9,
          "material": 1,
          "mode": 4
        }
      ]
    },
    {
      "name": "defaultMaterial",
      "primitives": [
        {
          "attributes": {
            "NORMAL": 11,
            "POSITION": 10,
            "TANGENT": 12,
            "TEXCOORD_0": 13
          },
          "indices": 14,
          "material": 0,
          "mode": 4
        }
      ]
    }
  ],
  "nodes": [
    {
      "children": [
        1
      ],
      "name": "RootNode (gltf orientation matrix)",
      "rotation": [
        -0.70710678118654746,
        -0,
        -0,
        0.70710678118654757
      ]
    },
    {
      "children": [
        2
      ],
      "name": "RootNode (model correction matrix)"
    },
    {
      "children": [
        3,
        5,
        7
      ],
      "matrix": [
        1,
        0,
        0,
        0,
        0,
        -4.3711390063094768e-08,
        0.999999999999999,
        0,
        0,
        -0.999999999999999,
        -4.3711390063094768e-08,
        0,
        0,
        0,
        0,
        1
      ],
      "name": "Collada visual scene group"
    },
    {
      "children": [
        4
      ],
      "name": "g"
    },
    {
      "mesh": 0,
      "name": "defaultMaterial"
    },
    {
      "children": [
        6
      ],
      "name": "g"
    },
    {
      "mesh": 1,
      "name": "defaultMaterial"
    },
    {
      "children": [
        8
      ],
      "name": "g"
    },
    {
      "mesh": 2,
      "name": "defaultMaterial"
    }
  ],
  "samplers": [
    {
      "magFilter": 9729,
      "minFilter": 9987,
      "wrapS": 10497,
      "wrapT": 10497
    }
  ],
  "scene": 0,
  "scenes": [
    {
      "name": "OSG_Scene",
      "nodes": [
        0
      ]
    }
  ],
  "textures": [
    {
      "sampler": 0,
      "source": 0
    },
    {
      "sampler": 0,
      "source": 1
    },
    {
      "sampler": 0,
      "source": 2
    },
    {
      "sampler": 0,
      "source": 3
    },
    {
      "sampler": 0,
      "source": 4
    },
    {
      "sampler": 0,
      "source": 5
    }
  ]
}

