{
  "accessors": [
    {
      "bufferView": 1,
      "componentType": 5126,
      "count": 3018,
      "max": [
        0.1852249950170517,
        2.8007469177246094,
        1.8063750267028809
      ],
      "min": [
        -0.5430150032043457,
        -2.8007469177246094,
        0.19859899580478668
      ],
      "type": "VEC3"
    },
    {
      "bufferView": 1,
      "byteOffset": 36216,
      "componentType": 5126,
      "count": 3018,
      "max": [
        0.99993342161178589,
        0.99999552965164185,
        0.99469530582427979
      ],
      "min": [
        -0.99996501207351685,
        -0.99999552965164185,
        -0.99537545442581177
      ],
      "type": "VEC3"
    },
    {
      "bufferView": 0,
      "componentType": 5125,
      "count": 17280,
      "max": [
        3017
      ],
      "min": [
        0
      ],
      "type": "SCALAR"
    },
    {
      "bufferView": 1,
      "byteOffset": 72432,
      "componentType": 5126,
      "count": 8342,
      "max": [
        0.21016900241374969,
        3.0058410167694092,
        1.9541540145874023
      ],
      "min": [
        -6.5321187973022461,
        -3.0058410167694092,
        0.040982000529766083
      ],
      "type": "VEC3"
    },
    {
      "bufferView": 1,
      "byteOffset": 172536,
      "componentType": 5126,
      "count": 8342,
      "max": [
        1,
        0.99999105930328369,
        1
      ],
      "min": [
        -1,
        -0.99998849630355835,
        -1
      ],
      "type": "VEC3"
    },
    {
      "bufferView": 0,
      "byteOffset": 69120,
      "componentType": 5125,
      "count": 49632,
      "max": [
        8341
      ],
      "min": [
        0
      ],
      "type": "SCALAR"
    }
  ],
  "asset": {
    "extras": {
      "author": "shshi (https://sketchfab.com/shshi)",
      "license": "CC-BY-4.0 (http://creativecommons.org/licenses/by/4.0/)",
      "source": "https://sketchfab.com/models/8487383dec1c4807af59609a6fed415f",
      "title": "Glasses"
    },
    "generator": "Sketchfab-3.17.1",
    "version": "2.0"
  },
  "bufferViews": [
    {
      "buffer": 0,
      "byteLength": 267648,
      "byteOffset": 0,
      "name": "floatBufferViews",
      "target": 34963
    },
    {
      "buffer": 0,
      "byteLength": 272640,
      "byteOffset": 267648,
      "byteStride": 12,
      "name": "floatBufferViews",
      "target": 34962
    }
  ],
  "buffers": [
    {
      "byteLength": 540288,
      "uri": "scene.bin"
    }
  ],
  "materials": [
    {
      "alphaMode": "BLEND",
      "doubleSided": true,
      "emissiveFactor": [
        0,
        0,
        0
      ],
      "name": "Glass",
      "pbrMetallicRoughness": {
        "baseColorFactor": [
          0.040112326099999998,
          0.028627340300000002,
          0.028627340300000002,
          0.61147103660000002
        ],
        "metallicFactor": 0,
        "roughnessFactor": 0.23608993899999997
      }
    },
    {
      "doubleSided": true,
      "emissiveFactor": [
        0,
        0,
        0
      ],
      "name": "Plastic",
      "pbrMetallicRoughness": {
        "baseColorFactor": [
          0.0042203665000000003,
          0.0042071308999999998,
          0.0041328433000000003,
          1
        ],
        "metallicFactor": 0,
        "roughnessFactor": 0.59999999999999998
      }
    }
  ],
  "meshes": [
    {
      "primitives": [
        {
          "attributes": {
            "NORMAL": 1,
            "POSITION": 0
          },
          "indices": 2,
          "material": 0,
          "mode": 4
        }
      ]
    },
    {
      "primitives": [
        {
          "attributes": {
            "NORMAL": 4,
            "POSITION": 3
          },
          "indices": 5,
          "material": 1,
          "mode": 4
        }
      ]
    }
  ],
  "nodes": [
    {
      "children": [
        1
      ],
      "name": "RootNode (gltf orientation matrix)",
      "rotation": [
        -0.70710678118654746,
        -0,
        -0,
        0.70710678118654757
      ]
    },
    {
      "children": [
        2
      ],
      "name": "RootNode (model correction matrix)"
    },
    {
      "children": [
        3,
        4
      ],
      "name": "Glasses.obj.cleaner.materialmerger.gles"
    },
    {
      "mesh": 0,
      "name": ""
    },
    {
      "mesh": 1,
      "name": ""
    }
  ],
  "scene": 0,
  "scenes": [
    {
      "name": "OSG_Scene",
      "nodes": [
        0
      ]
    }
  ]
}

