{
  "accessors": [
    {
      "bufferView": 2,
      "componentType": 5126,
      "count": 2208,
      "max": [
        13.834870338439941,
        61.053314208984375,
        298.535400390625
      ],
      "min": [
        -672.34906005859375,
        -109.54998779296875,
        -161.61677551269531
      ],
      "type": "VEC3"
    },
    {
      "bufferView": 2,
      "byteOffset": 26496,
      "componentType": 5126,
      "count": 2208,
      "max": [
        1,
        1,
        1
      ],
      "min": [
        -1,
        -1,
        -1
      ],
      "type": "VEC3"
    },
    {
      "bufferView": 3,
      "componentType": 5126,
      "count": 2208,
      "max": [
        1,
        1,
        1,
        1
      ],
      "min": [
        -1,
        -1,
        -1,
        -1
      ],
      "type": "VEC4"
    },
    {
      "bufferView": 1,
      "componentType": 5126,
      "count": 2208,
      "max": [
        1.8828548192977905,
        1.0525194406509399
      ],
      "min": [
        -0.88285481929779053,
        -0.79495930671691895
      ],
      "type": "VEC2"
    },
    {
      "bufferView": 0,
      "componentType": 5125,
      "count": 5724,
      "max": [
        2207
      ],
      "min": [
        0
      ],
      "type": "SCALAR"
    },
    {
      "bufferView": 2,
      "byteOffset": 52992,
      "componentType": 5126,
      "count": 96,
      "max": [
        -3.4197430610656738,
        56.847465515136719,
        274.37075805664062
      ],
      "min": [
        -23.215286254882812,
        -105.34414672851562,
        -137.45211791992188
      ],
      "type": "VEC3"
    },
    {
      "bufferView": 2,
      "byteOffset": 54144,
      "componentType": 5126,
      "count": 96,
      "max": [
        1,
        1.6144293113029562e-05,
        4.8119334678631276e-05
      ],
      "min": [
        -1,
        -3.9535596442874521e-05,
        -4.8119898565346375e-05
      ],
      "type": "VEC3"
    },
    {
      "bufferView": 3,
      "byteOffset": 35328,
      "componentType": 5126,
      "count": 96,
      "max": [
        -3.1959848456608597e-06,
        -0.39133143424987793,
        0.920249342918396,
        1
      ],
      "min": [
        -4.4874399463878945e-05,
        -1,
        -0.9202498197555542,
        -1
      ],
      "type": "VEC4"
    },
    {
      "bufferView": 1,
      "byteOffset": 17664,
      "componentType": 5126,
      "count": 96,
      "max": [
        0.97534722089767456,
        0.97534734010696411
      ],
      "min": [
        0.024652758613228798,
        0.024652756750583649
      ],
      "type": "VEC2"
    },
    {
      "bufferView": 0,
      "byteOffset": 22896,
      "componentType": 5125,
      "count": 264,
      "max": [
        95
      ],
      "min": [
        0
      ],
      "type": "SCALAR"
    },
    {
      "bufferView": 2,
      "byteOffset": 55296,
      "componentType": 5126,
      "count": 366,
      "max": [
        -669.7655029296875,
        -14.555281639099121,
        295.11947631835938
      ],
      "min": [
        -1000.4102783203125,
        -87.154067993164062,
        -158.20083618164062
      ],
      "type": "VEC3"
    },
    {
      "bufferView": 2,
      "byteOffset": 59688,
      "componentType": 5126,
      "count": 366,
      "max": [
        0.96722674369812012,
        0.73016238212585449,
        0.99999982118606567
      ],
      "min": [
        -0.99955219030380249,
        -0.93649429082870483,
        -0.99999982118606567
      ],
      "type": "VEC3"
    },
    {
      "bufferView": 3,
      "byteOffset": 36864,
      "componentType": 5126,
      "count": 366,
      "max": [
        0.99997240304946899,
        1,
        0.73069000244140625,
        1
      ],
      "min": [
        -0.99964612722396851,
        -1,
        -0.73068636655807495,
        -1
      ],
      "type": "VEC4"
    },
    {
      "bufferView": 1,
      "byteOffset": 18432,
      "componentType": 5126,
      "count": 366,
      "max": [
        1.0722275972366333,
        1.0722275972366333
      ],
      "min": [
        -0.125,
        -0.072227664291858673
      ],
      "type": "VEC2"
    },
    {
      "bufferView": 0,
      "byteOffset": 23952,
      "componentType": 5125,
      "count": 1164,
      "max": [
        365
      ],
      "min": [
        0
      ],
      "type": "SCALAR"
    },
    {
      "bufferView": 2,
      "byteOffset": 64080,
      "componentType": 5126,
      "count": 380,
      "max": [
        -21.025184631347656,
        -7.4537734985351562,
        140.52444458007812
      ],
      "min": [
        -48.376968383789062,
        -48.4876708984375,
        -3.605799674987793
      ],
      "type": "VEC3"
    },
    {
      "bufferView": 2,
      "byteOffset": 68640,
      "componentType": 5126,
      "count": 380,
      "max": [
        0.89485669136047363,
        0.99035143852233887,
        0.99688947200775146
      ],
      "min": [
        -0.90087258815765381,
        -0.98983436822891235,
        -0.99688947200775146
      ],
      "type": "VEC3"
    },
    {
      "bufferView": 3,
      "byteOffset": 42720,
      "componentType": 5126,
      "count": 380,
      "max": [
        0.99838888645172119,
        0.98438352346420288,
        0.91202151775360107,
        1
      ],
      "min": [
        -0.99810618162155151,
        -0.99759107828140259,
        -0.91202157735824585,
        -1
      ],
      "type": "VEC4"
    },
    {
      "bufferView": 1,
      "byteOffset": 21360,
      "componentType": 5126,
      "count": 380,
      "max": [
        3.0781090259552002,
        1.0907778739929199
      ],
      "min": [
        -2.0781090259552002,
        -0.09013240784406662
      ],
      "type": "VEC2"
    },
    {
      "bufferView": 0,
      "byteOffset": 28608,
      "componentType": 5125,
      "count": 744,
      "max": [
        379
      ],
      "min": [
        0
      ],
      "type": "SCALAR"
    }
  ],
  "asset": {
    "extras": {
      "author": "Anthony Yanez (https://sketchfab.com/paulyanez)",
      "license": "CC-BY-4.0 (http://creativecommons.org/licenses/by/4.0/)",
      "source": "https://sketchfab.com/models/6167fb73abe94fbda810020123d0dbdc",
      "title": "Glasses"
    },
    "generator": "Sketchfab-3.37.3",
    "version": "2.0"
  },
  "bufferViews": [
    {
      "buffer": 0,
      "byteLength": 31584,
      "byteOffset": 0,
      "name": "floatBufferViews",
      "target": 34963
    },
    {
      "buffer": 0,
      "byteLength": 24400,
      "byteOffset": 31584,
      "byteStride": 8,
      "name": "floatBufferViews",
      "target": 34962
    },
    {
      "buffer": 0,
      "byteLength": 73200,
      "byteOffset": 55984,
      "byteStride": 12,
      "name": "floatBufferViews",
      "target": 34962
    },
    {
      "buffer": 0,
      "byteLength": 48800,
      "byteOffset": 129184,
      "byteStride": 16,
      "name": "floatBufferViews",
      "target": 34962
    }
  ],
  "buffers": [
    {
      "byteLength": 177984,
      "uri": "scene.bin"
    }
  ],
  "materials": [
    {
      "doubleSided": true,
      "emissiveFactor": [
        0,
        0,
        0
      ],
      "name": "01_-_Default",
      "pbrMetallicRoughness": {
        "baseColorFactor": [
          0.36862699999999998,
          0.36862699999999998,
          0.36862699999999998,
          1
        ],
        "metallicFactor": 1,
        "roughnessFactor": 0.2421875
      }
    },
    {
      "alphaMode": "BLEND",
      "doubleSided": true,
      "emissiveFactor": [
        0,
        0,
        0
      ],
      "name": "02_-_Default",
      "pbrMetallicRoughness": {
        "baseColorFactor": [
          1,
          1,
          1,
          0.25
        ],
        "metallicFactor": 1,
        "roughnessFactor": 0
      }
    },
    {
      "doubleSided": true,
      "emissiveFactor": [
        0,
        0,
        0
      ],
      "name": "03_-_Default",
      "pbrMetallicRoughness": {
        "baseColorFactor": [
          0.027451,
          0.027451,
          0.027451,
          1
        ],
        "metallicFactor": 0.77610518289999997,
        "roughnessFactor": 0.37023628050000001
      }
    },
    {
      "alphaMode": "BLEND",
      "doubleSided": true,
      "emissiveFactor": [
        0,
        0,
        0
      ],
      "name": "07_-_Default",
      "pbrMetallicRoughness": {
        "baseColorFactor": [
          1,
          1,
          1,
          0.43464176830000001
        ],
        "metallicFactor": 1,
        "roughnessFactor": 0
      }
    }
  ],
  "meshes": [
    {
      "name": "Glasses_01 - Default_0",
      "primitives": [
        {
          "attributes": {
            "NORMAL": 1,
            "POSITION": 0,
            "TANGENT": 2,
            "TEXCOORD_0": 3
          },
          "indices": 4,
          "material": 0,
          "mode": 4
        }
      ]
    },
    {
      "name": "Glasses_02 - Default_0",
      "primitives": [
        {
          "attributes": {
            "NORMAL": 6,
            "POSITION": 5,
            "TANGENT": 7,
            "TEXCOORD_0": 8
          },
          "indices": 9,
          "material": 1,
          "mode": 4
        }
      ]
    },
    {
      "name": "Glasses_03 - Default_0",
      "primitives": [
        {
          "attributes": {
            "NORMAL": 11,
            "POSITION": 10,
            "TANGENT": 12,
            "TEXCOORD_0": 13
          },
          "indices": 14,
          "material": 2,
          "mode": 4
        }
      ]
    },
    {
      "name": "Glasses_07 - Default_0",
      "primitives": [
        {
          "attributes": {
            "NORMAL": 16,
            "POSITION": 15,
            "TANGENT": 17,
            "TEXCOORD_0": 18
          },
          "indices": 19,
          "material": 3,
          "mode": 4
        }
      ]
    }
  ],
  "nodes": [
    {
      "children": [
        1
      ],
      "name": "RootNode (gltf orientation matrix)",
      "rotation": [
        -0.70710678118654746,
        -0,
        -0,
        0.70710678118654757
      ]
    },
    {
      "children": [
        2
      ],
      "name": "RootNode (model correction matrix)"
    },
    {
      "children": [
        3
      ],
      "matrix": [
        1,
        0,
        0,
        0,
        0,
        0,
        1,
        0,
        0,
        -1,
        0,
        0,
        0,
        0,
        0,
        1
      ],
      "name": "13045306f1ea48548a3e5599d4a8aa28.fbx"
    },
    {
      "children": [
        4
      ],
      "name": "RootNode"
    },
    {
      "children": [
        5
      ],
      "matrix": [
        7.7515075194995717e-08,
        1.5742376090388887e-24,
        0.47578412294387185,
        0,
        -2.62067306974232e-08,
        0.59954011440277044,
        4.2696185151551694e-15,
        0,
        -0.99999999999998579,
        -4.3711388225505573e-08,
        1.6292068494294654e-07,
        0,
        0,
        0,
        0,
        1
      ],
      "name": "Glasses"
    },
    {
      "children": [
        6,
        7,
        8,
        9
      ],
      "matrix": [
        1,
        0,
        -0,
        0,
        0,
        1,
        0,
        0,
        0,
        0,
        1,
        0,
        -2.2897520466358401e-05,
        -4.8752685870567802e-06,
        -66.86859130859375,
        1
      ],
      "name": ""
    },
    {
      "mesh": 0,
      "name": "Glasses_01 - Default_0"
    },
    {
      "mesh": 1,
      "name": "Glasses_02 - Default_0"
    },
    {
      "mesh": 2,
      "name": "Glasses_03 - Default_0"
    },
    {
      "mesh": 3,
      "name": "Glasses_07 - Default_0"
    }
  ],
  "scene": 0,
  "scenes": [
    {
      "name": "OSG_Scene",
      "nodes": [
        0
      ]
    }
  ]
}

